HIERARCHY
ROOT hip
{
  OFFSET 0 0 0
  CHANNELS 6 Xposition Yposition Zposition Zrotation Yrotation Xrotation
  JOINT abdomen
  {
    OFFSET 0 20.6881 -0.73152
    CHANNELS 3 Zrotation Xrotation Yrotation
    JOINT chest
    {
      OFFSET 0 11.7043 -0.48768
      CHANNELS 3 Zrotation Xrotation Yrotation
      JOINT neck
      {
        OFFSET 0 22.1894 -2.19456
        CHANNELS 3 Zrotation Xrotation Yrotation
        JOINT head
        {
          OFFSET -0.24384 7.07133 1.2192
          CHANNELS 3 Zrotation Xrotation Yrotation
          JOINT leftEye
          {
            OFFSET 4.14528 8.04674 8.04672
            CHANNELS 3 Zrotation Xrotation Yrotation
            End Site
            {
              OFFSET 1 0 0
            }
          }
          JOINT rightEye
          {
            OFFSET -3.6576 8.04674 8.04672
            CHANNELS 3 Zrotation Xrotation Yrotation
            End Site
            {
              OFFSET 1 0 0
            }
          }
        }
      }
      JOINT rCollar
      {
        OFFSET -2.68224 19.2634 -4.8768
        CHANNELS 3 Zrotation Xrotation Yrotation
        JOINT rShldr
        {
          OFFSET -8.77824 -1.95073 1.46304
          CHANNELS 3 Zrotation Xrotation Yrotation
          JOINT rForeArm
          {
            OFFSET -28.1742 -1.7115 0.48768
            CHANNELS 3 Zrotation Xrotation Yrotation
            JOINT rHand
            {
              OFFSET -22.5879 0.773209 7.07136
              CHANNELS 3 Zrotation Xrotation Yrotation
              JOINT rThumb1
              {
                OFFSET -1.2192 -0.487915 3.41376
                CHANNELS 3 Zrotation Xrotation Yrotation
                JOINT rThumb2
                {
                  OFFSET -3.37035 -0.52449 3.41376
                  CHANNELS 3 Zrotation Xrotation Yrotation
                  End Site
                  {
                    OFFSET -1.78271 -1.18214 1.43049
                  }
                }
              }
              JOINT rIndex1
              {
                OFFSET -7.75947 0.938293 5.60832
                CHANNELS 3 Zrotation Xrotation Yrotation
                JOINT rIndex2
                {
                  OFFSET -2.54057 -0.884171 1.56538
                  CHANNELS 3 Zrotation Xrotation Yrotation
                  End Site
                  {
                    OFFSET -1.62519 -0.234802 1.16502
                  }
                }
              }
              JOINT rMid1
              {
                OFFSET -8.24714 1.18213 3.41376
                CHANNELS 3 Zrotation Xrotation Yrotation
                JOINT rMid2
                {
                  OFFSET -3.10165 -0.590103 1.0647
                  CHANNELS 3 Zrotation Xrotation Yrotation
                  End Site
                  {
                    OFFSET -2.48547 -0.328903 0.83742
                  }
                }
              }
              JOINT rRing1
              {
                OFFSET -8.82822 0.546677 1.51678
                CHANNELS 3 Zrotation Xrotation Yrotation
                JOINT rRing2
                {
                  OFFSET -2.60934 -0.819778 -0.0198488
                  CHANNELS 3 Zrotation Xrotation Yrotation
                  End Site
                  {
                    OFFSET -2.33842 -0.294052 0.168128
                  }
                }
              }
              JOINT rPinky1
              {
                OFFSET -8.27202 -0.0477905 -0.4584
                CHANNELS 3 Zrotation Xrotation Yrotation
                JOINT rPinky2
                {
                  OFFSET -1.82734 -0.647385 -0.700984
                  CHANNELS 3 Zrotation Xrotation Yrotation
                  End Site
                  {
                    OFFSET -1.69225 -0.51767 -0.607171
                  }
                }
              }
            }
          }
        }
      }
      JOINT lCollar
      {
        OFFSET 2.68224 19.2634 -4.8768
        CHANNELS 3 Zrotation Xrotation Yrotation
        JOINT lShldr
        {
          OFFSET 8.77824 -1.95073 1.46304
          CHANNELS 3 Zrotation Xrotation Yrotation
          JOINT lForeArm
          {
            OFFSET 28.1742 -1.7115 0.48768
            CHANNELS 3 Zrotation Xrotation Yrotation
            JOINT lHand
            {
              OFFSET 22.5879 0.773209 7.07136
              CHANNELS 3 Zrotation Xrotation Yrotation
              JOINT lThumb1
              {
                OFFSET 1.2192 -0.487915 3.41376
                CHANNELS 3 Zrotation Xrotation Yrotation
                JOINT lThumb2
                {
                  OFFSET 3.37035 -0.52449 3.41376
                  CHANNELS 3 Zrotation Xrotation Yrotation
                  End Site
                  {
                    OFFSET 1.78271 -1.18214 1.43049
                  }
                }
              }
              JOINT lIndex1
              {
                OFFSET 7.75947 0.938293 5.60832
                CHANNELS 3 Zrotation Xrotation Yrotation
                JOINT lIndex2
                {
                  OFFSET 2.54057 -0.884171 1.56538
                  CHANNELS 3 Zrotation Xrotation Yrotation
                  End Site
                  {
                    OFFSET 1.62519 -0.234802 1.16502
                  }
                }
              }
              JOINT lMid1
              {
                OFFSET 8.24714 1.18213 3.41376
                CHANNELS 3 Zrotation Xrotation Yrotation
                JOINT lMid2
                {
                  OFFSET 3.10165 -0.590103 1.0647
                  CHANNELS 3 Zrotation Xrotation Yrotation
                  End Site
                  {
                    OFFSET 2.48547 -0.328903 0.83742
                  }
                }
              }
              JOINT lRing1
              {
                OFFSET 8.82822 0.546677 1.51678
                CHANNELS 3 Zrotation Xrotation Yrotation
                JOINT lRing2
                {
                  OFFSET 2.60934 -0.819778 -0.0198488
                  CHANNELS 3 Zrotation Xrotation Yrotation
                  End Site
                  {
                    OFFSET 2.33842 -0.294052 0.168128
                  }
                }
              }
              JOINT lPinky1
              {
                OFFSET 8.27202 -0.0477905 -0.4584
                CHANNELS 3 Zrotation Xrotation Yrotation
                JOINT lPinky2
                {
                  OFFSET 1.82734 -0.647385 -0.700984
                  CHANNELS 3 Zrotation Xrotation Yrotation
                  End Site
                  {
                    OFFSET 1.69225 -0.51767 -0.607171
                  }
                }
              }
            }
          }
        }
      }
    }
  }
  JOINT rButtock
  {
    OFFSET -8.77824 4.35084 1.2192
    CHANNELS 3 Zrotation Xrotation Yrotation
    JOINT rThigh
    {
      OFFSET 0 -1.70687 -2.19456
      CHANNELS 3 Zrotation Xrotation Yrotation
      JOINT rShin
      {
        OFFSET 0 -36.8199 0.73152
        CHANNELS 3 Zrotation Xrotation Yrotation
        JOINT rFoot
        {
          OFFSET 0.73152 -45.1104 -5.12064
          CHANNELS 3 Zrotation Xrotation Yrotation
          End Site
          {
            OFFSET -1.1221 -3.69964 12.103
          }
        }
      }
    }
  }
  JOINT lButtock
  {
    OFFSET 8.77824 4.35084 1.2192
    CHANNELS 3 Zrotation Xrotation Yrotation
    JOINT lThigh
    {
      OFFSET 0 -1.70687 -2.19456
      CHANNELS 3 Zrotation Xrotation Yrotation
      JOINT lShin
      {
        OFFSET 0 -36.8199 0.73152
        CHANNELS 3 Zrotation Xrotation Yrotation
        JOINT lFoot
        {
          OFFSET -0.73152 -45.1104 -5.12064
          CHANNELS 3 Zrotation Xrotation Yrotation
          End Site
          {
            OFFSET 1.1221 -3.69964 12.103
          }
        }
      }
    }
  }
}
MOTION
Frames:	5
Frame Time:	0.00833333
-4.19056 82.6303 24.2408 -0.8439 -2.5028 7.0227 -2.9425 16.678 2.95696 1.0848 -5.25949 0.755998 1.30928 15.0531 -2.66689 2.8913 -37.1504 -4.48726 -0.0 0.0 0.0 -0.0 0.0 0.0 -3.74328e-16 8.6742e-14 -1.16552e-13 8.23201 6.02725 41.7039 -18.2304 -54.5966 118.355 -2.26983 -38.6856 -6.46123 -1.08114e-10 -6.73594e-11 1.36567e-10 -1.92184e-10 -1.18426e-10 2.32626e-10 -1.08113e-10 -6.73654e-11 1.3655e-10 7.73091 5.47488 0.417314 -1.08114e-10 -6.73606e-11 1.36561e-10 2.90554 0.965183 0.102902 -1.08113e-10 -6.73619e-11 1.36564e-10 10.2786 0.731801 0.0259123 -1.08119e-10 -6.73591e-11 1.36565e-10 2.22167 -0.733487 -0.20892 -3.69228e-16 8.67475e-14 -1.16656e-13 -82.0387 36.2239 17.2444 23.7809 -18.6934 -48.9239 0.0375416 -5.51862 0.778026 3.2803e-11 2.42286e-10 2.7219e-10 5.56803e-11 4.1849e-10 4.71396e-10 3.28043e-11 2.42288e-10 2.72189e-10 -7.73091 5.47488 -0.417314 3.28082e-11 2.42289e-10 2.72183e-10 -2.90554 0.965183 -0.102902 3.27963e-11 2.42289e-10 2.72189e-10 -10.2786 0.731801 -0.0259123 3.28065e-11 2.42291e-10 2.72183e-10 -2.22167 -0.733487 0.20892 -2.03217e-16 0.0 -3.88251e-19 -6.54093 -12.7362 0.567716 -0.0266747 11.8645 0.234517 -2.50594 -11.5862 -9.5697 2.03217e-16 0.0 3.88251e-19 7.53369 -21.5524 -0.775264 0.110965 28.1425 -0.603767 2.62473 -14.6632 8.84163
-4.17796 82.6322 24.2857 -0.8656 -2.4619 6.9959 -2.85764 16.4838 2.95499 1.03664 -5.35467 0.759551 1.25031 14.8858 -2.69698 2.90794 -37.4207 -4.54629 -0.0 0.0 0.0 -0.0 0.0 0.0 -3.83756e-15 7.63302e-14 -1.28166e-13 8.33936 5.59136 41.6705 -18.2538 -54.5813 118.302 -2.21337 -38.2891 -6.37003 4.80502e-12 -1.10842e-12 2.98536e-10 -2.01409e-12 -3.7944e-12 5.16937e-10 4.80622e-12 -1.10882e-12 2.98517e-10 7.73091 5.47488 0.417314 4.80557e-12 -1.10952e-12 2.9853e-10 2.90554 0.965183 0.102902 4.80683e-12 -1.11121e-12 2.98533e-10 10.2786 0.731801 0.0259123 4.79906e-12 -1.10882e-12 2.98533e-10 2.22167 -0.733487 -0.20892 -3.81593e-15 7.63364e-14 -1.28216e-13 -82.0685 36.1938 17.2868 23.7769 -18.6863 -48.9116 0.0366025 -5.45255 0.768651 6.745e-11 2.71922e-10 4.78801e-10 1.14395e-10 4.68731e-10 8.28653e-10 6.74524e-11 2.71924e-10 4.78801e-10 -7.73091 5.47488 -0.417314 6.74545e-11 2.71923e-10 4.78794e-10 -2.90554 0.965183 -0.102902 6.74436e-11 2.71925e-10 4.788e-10 -10.2786 0.731801 -0.0259123 6.74538e-11 2.71927e-10 4.78794e-10 -2.22167 -0.733487 0.20892 -2.03217e-16 0.0 -3.88251e-19 -6.51888 -12.7011 0.462035 -0.0266634 11.872 0.234052 -2.47702 -11.5474 -9.48232 2.03217e-16 0.0 3.88251e-19 7.53073 -21.5192 -0.901468 0.110921 28.1576 -0.605176 2.66702 -14.7182 8.95151
-4.34012 82.6432 24.4287 -0.8602 -2.4104 6.9743 -2.90225 16.2106 2.96688 1.09871 -5.38784 0.766711 1.23178 14.7866 -2.69636 2.89716 -37.7863 -4.54883 -0.0 0.0 0.0 -0.0 0.0 0.0 -5.23584e-15 -1.50853e-14 -9.33372e-14 8.38083 5.15114 41.6532 -18.2544 -54.5809 118.301 -2.17292 -38.0003 -6.30422 1.41002e-10 7.93057e-11 8.39246e-10 2.1692e-10 1.32537e-10 1.45692e-09 1.41003e-10 7.93086e-11 8.39228e-10 7.73091 5.47488 0.417314 1.41002e-10 7.93057e-11 8.39241e-10 2.90554 0.965183 0.102902 1.41004e-10 7.93042e-11 8.39243e-10 10.2786 0.731801 0.0259123 1.40996e-10 7.9306e-11 8.39244e-10 2.22167 -0.733487 -0.20892 -5.21587e-15 -1.50802e-14 -9.34265e-14 -82.1074 36.1218 17.3432 23.7675 -18.6691 -48.8821 0.0363792 -5.43575 0.766268 1.6505e-11 1.81019e-10 8.31047e-10 2.39769e-11 3.09249e-10 1.43582e-09 1.65068e-11 1.81021e-10 8.31049e-10 -7.73091 5.47488 -0.417314 1.65091e-11 1.8102e-10 8.31042e-10 -2.90554 0.965183 -0.102902 1.6499e-11 1.81022e-10 8.31047e-10 -10.2786 0.731801 -0.0259123 1.65095e-11 1.81024e-10 8.31042e-10 -2.22167 -0.733487 0.20892 -2.03217e-16 0.0 -3.88251e-19 -6.45256 -12.6024 0.496765 -0.0266221 11.8481 0.234333 -2.49343 -11.6112 -9.49922 2.03217e-16 0.0 3.88251e-19 7.58662 -21.4059 -0.902222 0.110303 28.1037 -0.603456 2.66713 -14.7422 8.94087
-4.4148 82.6586 24.5264 -0.8775 -2.4492 6.9344 -3.0266 15.8841 2.98807 1.23044 -5.38238 0.776434 1.23968 14.7286 -2.67512 2.86837 -38.2093 -4.51316 -0.0 0.0 0.0 -0.0 0.0 0.0 -5.73793e-15 -1.62408e-13 -2.71155e-14 8.37805 4.71085 41.6519 -18.2409 -54.5896 118.331 -2.14266 -37.7837 -6.255 3.11302e-10 1.76547e-10 1.65916e-09 4.86248e-10 2.95882e-10 2.8809e-09 3.11302e-10 1.76553e-10 1.65915e-09 7.73091 5.47488 0.417314 3.11301e-10 1.76549e-10 1.65916e-09 2.90554 0.965183 0.102902 3.11305e-10 1.76548e-10 1.65916e-09 10.2786 0.731801 0.0259123 3.11297e-10 1.76549e-10 1.65916e-09 2.22167 -0.733487 -0.20892 -5.73296e-15 -1.62406e-13 -2.73018e-14 -82.1502 36.0139 17.4078 23.753 -18.6428 -48.8372 0.036282 -5.42841 0.765228 -8.76347e-11 1.16965e-11 1.30914e-09 -1.59336e-10 1.31761e-11 2.25932e-09 -8.76346e-11 1.16967e-11 1.30915e-09 -7.73091 5.47488 -0.417314 -8.76311e-11 1.16964e-11 1.30914e-09 -2.90554 0.965183 -0.102902 -8.76402e-11 1.1697e-11 1.30914e-09 -10.2786 0.731801 -0.0259123 -8.76292e-11 1.1699e-11 1.30914e-09 -2.22167 -0.733487 0.20892 -2.03217e-16 0.0 -3.88251e-19 -6.35418 -12.4568 0.621704 -0.0264851 11.7907 0.23481 -2.53847 -11.7331 -9.58483 2.03217e-16 0.0 3.88251e-19 7.68364 -21.2374 -0.822823 0.109283 28.0007 -0.599664 2.64197 -14.7461 8.85871
-4.44419 82.6712 24.5962 -0.9252 -2.4437 6.9185 -3.15941 15.5413 3.01056 1.3649 -5.37309 0.786308 1.25337 14.6963 -2.6505 2.84528 -38.6426 -4.46734 -0.0 0.0 0.0 -0.0 0.0 0.0 -6.1159e-15 -3.04066e-13 3.83515e-14 8.34511 4.28007 41.643 -18.2215 -54.6021 118.375 -2.12005 -37.6215 -6.21824 4.57269e-10 2.6033e-10 2.41609e-09 7.15433e-10 4.36171e-10 4.19505e-09 4.57268e-10 2.60337e-10 2.41607e-09 7.73091 5.47488 0.417314 4.57266e-10 2.60334e-10 2.41609e-09 2.90554 0.965183 0.102902 4.57273e-10 2.60333e-10 2.41608e-09 10.2786 0.731801 0.0259123 4.57264e-10 2.60334e-10 2.41609e-09 2.22167 -0.733487 -0.20892 -6.13034e-15 -3.04066e-13 3.80618e-14 -82.2 35.8965 17.4834 23.7364 -18.6127 -48.7859 0.0361782 -5.42075 0.76414 -1.81413e-10 -1.45958e-10 1.72118e-09 -3.24307e-10 -2.6231e-10 2.9687e-09 -1.81415e-10 -1.45959e-10 1.72119e-09 -7.73091 5.47488 -0.417314 -1.8141e-10 -1.45959e-10 1.72119e-09 -2.90554 0.965183 -0.102902 -1.81418e-10 -1.45959e-10 1.72119e-09 -10.2786 0.731801 -0.0259123 -1.81407e-10 -1.45957e-10 1.72118e-09 -2.22167 -0.733487 0.20892 -2.03217e-16 0.0 -3.88251e-19 -6.26003 -12.2918 0.751313 -0.0262309 11.7097 0.234922 -2.58715 -11.8534 -9.68389 2.03217e-16 0.0 3.88251e-19 7.77469 -21.0542 -0.746473 0.108109 27.8794 -0.595365 2.61584 -14.7484 8.77384
